<svg height="2670" width="720" xmlns="http://www.w3.org/2000/svg">
<rect height="2670" fill="#555" width="720"></rect>
<text fill="#7f7" font-family="Courier New" font-size="12" xml:space="preserve">
<tspan x="10" y="26">2019-08-23 20:22:29 -0500</tspan>

<tspan x="10" y="42">- jslint - remove ternary-operator/newline comment preceding bra</tspan>

<tspan x="10" y="58"></tspan>

<tspan x="10" y="74">2019-08-21 02:13:21 -0500</tspan>

<tspan x="10" y="90">update.build</tspan>

<tspan x="10" y="106"></tspan>

<tspan x="10" y="122">2019-08-04 06:52:33 -0500</tspan>

<tspan x="10" y="138">- rename var request to req, and response to res</tspan>

<tspan x="10" y="154"></tspan>

<tspan x="10" y="170">2019-08-04 11:23:11 +0000</tspan>

<tspan x="10" y="186">- rename var request to req, and response to res</tspan>

<tspan x="10" y="202"></tspan>

<tspan x="10" y="218">2019-08-04 06:21:47 -0500</tspan>

<tspan x="10" y="234">- rename var request to req, and response to res</tspan>

<tspan x="10" y="250"></tspan>

<tspan x="10" y="266">2019-08-04 06:12:00 -0500</tspan>

<tspan x="10" y="282">- rename var request to req, and response to res</tspan>

<tspan x="10" y="298"></tspan>

<tspan x="10" y="314">2019-08-04 06:10:33 -0500</tspan>

<tspan x="10" y="330">revert</tspan>

<tspan x="10" y="346"></tspan>

<tspan x="10" y="362">2019-08-04 06:10:02 -0500</tspan>

<tspan x="10" y="378">slushy</tspan>

<tspan x="10" y="394"></tspan>

<tspan x="10" y="410">2019-08-04 05:06:13 -0500</tspan>

<tspan x="10" y="426">- rename var request to req, and response to res</tspan>

<tspan x="10" y="442"></tspan>

<tspan x="10" y="458">2019-08-04 08:59:09 +0000</tspan>

<tspan x="10" y="474">- disable travis-ci cache</tspan>

<tspan x="10" y="490"></tspan>

<tspan x="10" y="506">2019-08-04 03:40:08 -0500</tspan>

<tspan x="10" y="522">- rename var error to err</tspan>

<tspan x="10" y="538"></tspan>

<tspan x="10" y="554">2019-08-04 08:34:58 +0000</tspan>

<tspan x="10" y="570">- rename var error to err</tspan>

<tspan x="10" y="586"></tspan>

<tspan x="10" y="602">2019-08-04 08:10:49 +0000</tspan>

<tspan x="10" y="618">- rename var local.errorDefault to local.errDefault</tspan>

<tspan x="10" y="634"></tspan>

<tspan x="10" y="650">2019-08-04 06:08:44 +0000</tspan>

<tspan x="10" y="666">- rename var error to err</tspan>

<tspan x="10" y="682"></tspan>

<tspan x="10" y="698">2019-08-04 03:39:01 +0000</tspan>

<tspan x="10" y="714">fix.npm.test</tspan>

<tspan x="10" y="730"></tspan>

<tspan x="10" y="746">2019-08-04 03:25:13 +0000</tspan>

<tspan x="10" y="762">update.build</tspan>

<tspan x="10" y="778"></tspan>

<tspan x="10" y="794">2019-01-21 02:34:55 -0600</tspan>

<tspan x="10" y="810">[npm publish] - npm publish 2019.1.21</tspan>

<tspan x="10" y="826">- add functions githubRepoCreateList, githubRepoDeleteList</tspan>

<tspan x="10" y="842">- rename functions githubBranchCreate -&gt; githubRepoCreate, githubBranchDelete -&gt; githubRepoDelet\</tspan>
<tspan x="10" y="858">e</tspan>

<tspan x="10" y="874"></tspan>

<tspan x="10" y="890">2018-08-08 10:48:54 +0700</tspan>

<tspan x="10" y="906">[npm publish] - npm publish 2018.8.8</tspan>

<tspan x="10" y="922">- remove browser-restrictions</tspan>

<tspan x="10" y="938">- add functions githubBranchCreate and githubBranchDelete</tspan>

<tspan x="10" y="954">- migrate from modeJs -&gt; isBrowser</tspan>

<tspan x="10" y="970"></tspan>

<tspan x="10" y="986">2018-04-29 08:08:39 +0800</tspan>

<tspan x="10" y="1002">[npm publish] - npm publish 2018.4.28</tspan>

<tspan x="10" y="1018">- replace function httpRequest -&gt; ajax</tspan>

<tspan x="10" y="1034">- improve test-coverage</tspan>

<tspan x="10" y="1050"></tspan>

<tspan x="10" y="1066">2018-03-07 16:43:33 +0800</tspan>

<tspan x="10" y="1082">[npm publish] - npm publish v2018.3.6</tspan>

<tspan x="10" y="1098">- update build</tspan>

<tspan x="10" y="1114"></tspan>

<tspan x="10" y="1130">2017-11-16 21:57:41 +0800</tspan>

<tspan x="10" y="1146">[npm publish] - npm publish 2017.11.15</tspan>

<tspan x="10" y="1162">- cleanup test.js</tspan>

<tspan x="10" y="1178"></tspan>

<tspan x="10" y="1194">2017-09-17 02:28:48 +0700</tspan>

<tspan x="10" y="1210">[npm publish] - npm publish 2017.9.16</tspan>

<tspan x="10" y="1226">- revamp README.md</tspan>

<tspan x="10" y="1242">- revamp cli</tspan>

<tspan x="10" y="1258">- fix stale tests</tspan>

<tspan x="10" y="1274"></tspan>

<tspan x="10" y="1290">2015-08-20 20:58:40 +0800</tspan>

<tspan x="10" y="1306">- npm publish 2015.8.2</tspan>

<tspan x="10" y="1322">- create api documentation</tspan>

<tspan x="10" y="1338"></tspan>

<tspan x="10" y="1354">2015-08-13 01:55:15 +0800</tspan>

<tspan x="10" y="1370">- npm publish 2015.8.1</tspan>

<tspan x="10" y="1386">- replace some screen-captures with svg</tspan>

<tspan x="10" y="1402"></tspan>

<tspan x="10" y="1418">2015-07-31 16:23:17 +0800</tspan>

<tspan x="10" y="1434">- npm publish 2015.6.3</tspan>

<tspan x="10" y="1450">- update README.md</tspan>

<tspan x="10" y="1466">- update dependencies</tspan>

<tspan x="10" y="1482"></tspan>

<tspan x="10" y="1498">2015-06-24 23:54:51 +0800</tspan>

<tspan x="10" y="1514">- npm publish 2015.6.2</tspan>

<tspan x="10" y="1530">- update README.md with syntax-highlighted code-blocks</tspan>

<tspan x="10" y="1546"></tspan>

<tspan x="10" y="1562">2015-06-16 10:30:57 +0800</tspan>

<tspan x="10" y="1578">- npm publish 2015.6.1-a</tspan>

<tspan x="10" y="1594">- update README.md with syntax-highlighted code-blocks</tspan>

<tspan x="10" y="1610"></tspan>

<tspan x="10" y="1626">2015-05-28 11:26:08 +0800</tspan>

<tspan x="10" y="1642">- npm publish 2015.5.28-a</tspan>

<tspan x="10" y="1658">- add recursive-delete function contentDeleteTree</tspan>

<tspan x="10" y="1674">- add shell command contentPutUrl</tspan>

<tspan x="10" y="1690">- rename shell command contentPut to contentPutString</tspan>

<tspan x="10" y="1706">- add method urlResolve</tspan>

<tspan x="10" y="1722">- remove "instanceof Error" check for error validation tests</tspan>

<tspan x="10" y="1738">- require explicit creation of deferred task utility2.onReady</tspan>

<tspan x="10" y="1754">- delete unused demo.sh</tspan>

<tspan x="10" y="1770">- fix multi-build race conditions</tspan>

<tspan x="10" y="1786"></tspan>

<tspan x="10" y="1802">2015-05-01 03:40:02 +0800</tspan>

<tspan x="10" y="1818">- npm publish 2015.4.30-e</tspan>

<tspan x="10" y="1834"></tspan>

<tspan x="10" y="1850">2015-05-01 02:37:02 +0800</tspan>

<tspan x="10" y="1866">- npm publish 2015.4.30-c</tspan>

<tspan x="10" y="1882">- add quickstart node example</tspan>

<tspan x="10" y="1898">- add quickstart cli example</tspan>

<tspan x="10" y="1914"></tspan>

<tspan x="10" y="1930">2015-04-30 21:24:16 +0800</tspan>

<tspan x="10" y="1946">- npm publish 2015.4.30-a</tspan>

<tspan x="10" y="1962">- improve test-coverage</tspan>

<tspan x="10" y="1978">- add ajaxContentDelete, ajaxContentGet, ajaxContentPut</tspan>

<tspan x="10" y="1994">- add testCase_contentGet_default</tspan>

<tspan x="10" y="2010">- update README.md</tspan>

<tspan x="10" y="2026">- migrate from github-upload to github-crud</tspan>

<tspan x="10" y="2042"></tspan>

<tspan x="10" y="2058">2014-12-28 21:05:21 +0800</tspan>

<tspan x="10" y="2074">fix build</tspan>

<tspan x="10" y="2090"></tspan>

<tspan x="10" y="2106">2014-12-28 20:43:07 +0800</tspan>

<tspan x="10" y="2122">add demo.sh</tspan>

<tspan x="10" y="2138"></tspan>

<tspan x="10" y="2154">2014-12-28 19:50:36 +0800</tspan>

<tspan x="10" y="2170">fix test</tspan>

<tspan x="10" y="2186"></tspan>

<tspan x="10" y="2202">2014-12-28 19:10:28 +0800</tspan>

<tspan x="10" y="2218">remove screenshot.png</tspan>

<tspan x="10" y="2234"></tspan>

<tspan x="10" y="2250">2014-12-28 19:09:23 +0800</tspan>

<tspan x="10" y="2266">fix test</tspan>

<tspan x="10" y="2282"></tspan>

<tspan x="10" y="2298">2014-12-28 10:15:03 +0800</tspan>

<tspan x="10" y="2314">improve code coverage</tspan>

<tspan x="10" y="2330"></tspan>

<tspan x="10" y="2346">2014-12-28 07:17:13 +0800</tspan>

<tspan x="10" y="2362">- add modeData option in githubUpload</tspan>

<tspan x="10" y="2378"></tspan>

<tspan x="10" y="2394">2014-12-28 06:26:46 +0800</tspan>

<tspan x="10" y="2410">improve test coverage</tspan>

<tspan x="10" y="2426"></tspan>

<tspan x="10" y="2442">2014-12-27 21:38:33 +0800</tspan>

<tspan x="10" y="2458">update README.md</tspan>

<tspan x="10" y="2474"></tspan>

<tspan x="10" y="2490">2014-12-27 21:10:55 +0800</tspan>

<tspan x="10" y="2506">add cli script</tspan>

<tspan x="10" y="2522"></tspan>

<tspan x="10" y="2538">2014-12-27 19:54:19 +0800</tspan>

<tspan x="10" y="2554">improve coverage</tspan>

<tspan x="10" y="2570"></tspan>

<tspan x="10" y="2586">2014-12-27 12:17:15 +0800</tspan>

<tspan x="10" y="2602">initial commit</tspan>

<tspan x="10" y="2618"></tspan>

<tspan x="10" y="2634">2014-03-26 02:31:50 +0700</tspan>

<tspan x="10" y="2650">add blank README.md</tspan>

</text>
</svg>
