<svg height="1086" width="720" xmlns="http://www.w3.org/2000/svg">
<rect height="1086" fill="#555" width="720"></rect>
<text fill="#7f7" font-family="Courier New" font-size="12" xml:space="preserve">
<tspan x="10" y="26"></tspan>

<tspan x="10" y="42">&gt; github-crud@2019.1.21 postinstall /tmp/node_modules/github-crud</tspan>

<tspan x="10" y="58">&gt; sh ./npm_scripts.sh</tspan>

<tspan x="10" y="74"></tspan>

<tspan x="10" y="90">running command 'npm run postinstall kaizhu256/node-github-crud#alpha' ...</tspan>

<tspan x="10" y="106">... finished running command 'npm run postinstall kaizhu256/node-github-crud#alpha'</tspan>

<tspan x="10" y="122">npm WARN saveError ENOENT: no such file or directory, open '/tmp/package.json'</tspan>

<tspan x="10" y="138">npm notice created a lockfile as package-lock.json. You should commit this file.</tspan>

<tspan x="10" y="154">npm WARN enoent ENOENT: no such file or directory, open '/tmp/package.json'</tspan>

<tspan x="10" y="170">npm WARN tmp No description</tspan>

<tspan x="10" y="186">npm WARN tmp No repository field.</tspan>

<tspan x="10" y="202">npm WARN tmp No README data</tspan>

<tspan x="10" y="218">npm WARN tmp No license field.</tspan>

<tspan x="10" y="234"></tspan>

<tspan x="10" y="250">+ github-crud@2019.1.21</tspan>

<tspan x="10" y="266">added 1 package from 1 contributor and audited 1 package in 0.485s</tspan>

<tspan x="10" y="282">found 0 vulnerabilities</tspan>

<tspan x="10" y="298"></tspan>

<tspan x="10" y="314"></tspan>

<tspan x="10" y="330"></tspan>

<tspan x="10" y="346"></tspan>

<tspan x="10" y="362">$ /tmp/node_modules/.bin/github-crud put https://github.com/kaizhu256/node-github-crud/blob/gh-p\</tspan>
<tspan x="10" y="378">ages/foo/bar/hello.txt /tmp/hello.txt commit-message-1</tspan>

<tspan x="10" y="394"></tspan>

<tspan x="10" y="410">serverLog - {"time":"2019-08-04T11:26:05.355Z","type":"githubCrudResponse","method":"GET","url":\</tspan>
<tspan x="10" y="426">"https://api.github.com/repos/kaizhu256/node-github-crud/contents/foo/bar/hello.txt?ref=gh-pages\</tspan>
<tspan x="10" y="442">","statusCode":404,"timeElapsed":177}</tspan>

<tspan x="10" y="458">serverLog - {"time":"2019-08-04T11:26:05.538Z","type":"githubCrudResponse","method":"PUT","url":\</tspan>
<tspan x="10" y="474">"https://api.github.com/repos/kaizhu256/node-github-crud/contents/foo/bar/hello.txt?branch=gh-pa\</tspan>
<tspan x="10" y="490">ges&amp;message=commit-message-1","statusCode":201,"timeElapsed":877}</tspan>

<tspan x="10" y="506"></tspan>

<tspan x="10" y="522"></tspan>

<tspan x="10" y="538"></tspan>

<tspan x="10" y="554">$ /tmp/node_modules/.bin/github-crud get https://github.com/kaizhu256/node-github-crud/blob/gh-p\</tspan>
<tspan x="10" y="570">ages/foo/bar/hello.txt</tspan>

<tspan x="10" y="586"></tspan>

<tspan x="10" y="602">serverLog - {"time":"2019-08-04T11:26:06.494Z","type":"githubCrudResponse","method":"GET","url":\</tspan>
<tspan x="10" y="618">"https://api.github.com/repos/kaizhu256/node-github-crud/contents/foo/bar/hello.txt?ref=gh-pages\</tspan>
<tspan x="10" y="634">","statusCode":200,"timeElapsed":157}</tspan>

<tspan x="10" y="650">hello world</tspan>

<tspan x="10" y="666"></tspan>

<tspan x="10" y="682"></tspan>

<tspan x="10" y="698"></tspan>

<tspan x="10" y="714">$ /tmp/node_modules/.bin/github-crud touch https://github.com/kaizhu256/node-github-crud/blob/gh\</tspan>
<tspan x="10" y="730">-pages/foo/bar/hello.txt commit-message-2</tspan>

<tspan x="10" y="746"></tspan>

<tspan x="10" y="762">serverLog - {"time":"2019-08-04T11:26:06.733Z","type":"githubCrudResponse","method":"GET","url":\</tspan>
<tspan x="10" y="778">"https://api.github.com/repos/kaizhu256/node-github-crud/contents/foo/bar/hello.txt?ref=gh-pages\</tspan>
<tspan x="10" y="794">","statusCode":200,"timeElapsed":151}</tspan>

<tspan x="10" y="810">serverLog - {"time":"2019-08-04T11:26:06.891Z","type":"githubCrudResponse","method":"PUT","url":\</tspan>
<tspan x="10" y="826">"https://api.github.com/repos/kaizhu256/node-github-crud/contents/foo/bar/hello.txt?branch=gh-pa\</tspan>
<tspan x="10" y="842">ges&amp;message=commit-message-2&amp;sha=3b18e512dba79e4c8300dd08aeb37f8e728b8dad","statusCode":200,"tim\</tspan>
<tspan x="10" y="858">eElapsed":855}</tspan>

<tspan x="10" y="874"></tspan>

<tspan x="10" y="890"></tspan>

<tspan x="10" y="906"></tspan>

<tspan x="10" y="922">$ /tmp/node_modules/.bin/github-crud delete https://github.com/kaizhu256/node-github-crud/blob/g\</tspan>
<tspan x="10" y="938">h-pages/foo/bar/hello.txt commit-message-3</tspan>

<tspan x="10" y="954"></tspan>

<tspan x="10" y="970">serverLog - {"time":"2019-08-04T11:26:07.825Z","type":"githubCrudResponse","method":"GET","url":\</tspan>
<tspan x="10" y="986">"https://api.github.com/repos/kaizhu256/node-github-crud/contents/foo/bar/hello.txt?ref=gh-pages\</tspan>
<tspan x="10" y="1002">","statusCode":200,"timeElapsed":153}</tspan>

<tspan x="10" y="1018">serverLog - {"time":"2019-08-04T11:26:07.984Z","type":"githubCrudResponse","method":"DELETE","ur\</tspan>
<tspan x="10" y="1034">l":"https://api.github.com/repos/kaizhu256/node-github-crud/contents/foo/bar/hello.txt?branch=gh\</tspan>
<tspan x="10" y="1050">-pages&amp;message=commit-message-3&amp;sha=3b18e512dba79e4c8300dd08aeb37f8e728b8dad","statusCode":200,"\</tspan>
<tspan x="10" y="1066">timeElapsed":813}</tspan>

</text>
</svg>
