<svg height="1902" width="720" xmlns="http://www.w3.org/2000/svg">
<rect height="1902" fill="#555" width="720"></rect>
<text fill="#7f7" font-family="Courier New" font-size="12" xml:space="preserve">
<tspan x="10" y="26">2019-01-21 02:34:55 -0600</tspan>

<tspan x="10" y="42">[npm publish] - npm publish 2019.1.21</tspan>

<tspan x="10" y="58">- add functions githubRepoCreateList, githubRepoDeleteList</tspan>

<tspan x="10" y="74">- rename functions githubBranchCreate -&gt; githubRepoCreate, githubBranchDelete -&gt; githubRepoDelet\</tspan>
<tspan x="10" y="90">e</tspan>

<tspan x="10" y="106"></tspan>

<tspan x="10" y="122">2018-08-08 10:48:54 +0700</tspan>

<tspan x="10" y="138">[npm publish] - npm publish 2018.8.8</tspan>

<tspan x="10" y="154">- remove browser-restrictions</tspan>

<tspan x="10" y="170">- add functions githubBranchCreate and githubBranchDelete</tspan>

<tspan x="10" y="186">- migrate from modeJs -&gt; isBrowser</tspan>

<tspan x="10" y="202"></tspan>

<tspan x="10" y="218">2018-04-29 08:08:39 +0800</tspan>

<tspan x="10" y="234">[npm publish] - npm publish 2018.4.28</tspan>

<tspan x="10" y="250">- replace function httpRequest -&gt; ajax</tspan>

<tspan x="10" y="266">- improve test-coverage</tspan>

<tspan x="10" y="282"></tspan>

<tspan x="10" y="298">2018-03-07 16:43:33 +0800</tspan>

<tspan x="10" y="314">[npm publish] - npm publish v2018.3.6</tspan>

<tspan x="10" y="330">- update build</tspan>

<tspan x="10" y="346"></tspan>

<tspan x="10" y="362">2017-11-16 21:57:41 +0800</tspan>

<tspan x="10" y="378">[npm publish] - npm publish 2017.11.15</tspan>

<tspan x="10" y="394">- cleanup test.js</tspan>

<tspan x="10" y="410"></tspan>

<tspan x="10" y="426">2017-09-17 02:28:48 +0700</tspan>

<tspan x="10" y="442">[npm publish] - npm publish 2017.9.16</tspan>

<tspan x="10" y="458">- revamp README.md</tspan>

<tspan x="10" y="474">- revamp cli</tspan>

<tspan x="10" y="490">- fix stale tests</tspan>

<tspan x="10" y="506"></tspan>

<tspan x="10" y="522">2015-08-20 20:58:40 +0800</tspan>

<tspan x="10" y="538">- npm publish 2015.8.2</tspan>

<tspan x="10" y="554">- create api documentation</tspan>

<tspan x="10" y="570"></tspan>

<tspan x="10" y="586">2015-08-13 01:55:15 +0800</tspan>

<tspan x="10" y="602">- npm publish 2015.8.1</tspan>

<tspan x="10" y="618">- replace some screen-captures with svg</tspan>

<tspan x="10" y="634"></tspan>

<tspan x="10" y="650">2015-07-31 16:23:17 +0800</tspan>

<tspan x="10" y="666">- npm publish 2015.6.3</tspan>

<tspan x="10" y="682">- update README.md</tspan>

<tspan x="10" y="698">- update dependencies</tspan>

<tspan x="10" y="714"></tspan>

<tspan x="10" y="730">2015-06-24 23:54:51 +0800</tspan>

<tspan x="10" y="746">- npm publish 2015.6.2</tspan>

<tspan x="10" y="762">- update README.md with syntax-highlighted code-blocks</tspan>

<tspan x="10" y="778"></tspan>

<tspan x="10" y="794">2015-06-16 10:30:57 +0800</tspan>

<tspan x="10" y="810">- npm publish 2015.6.1-a</tspan>

<tspan x="10" y="826">- update README.md with syntax-highlighted code-blocks</tspan>

<tspan x="10" y="842"></tspan>

<tspan x="10" y="858">2015-05-28 11:26:08 +0800</tspan>

<tspan x="10" y="874">- npm publish 2015.5.28-a</tspan>

<tspan x="10" y="890">- add recursive-delete function contentDeleteTree</tspan>

<tspan x="10" y="906">- add shell command contentPutUrl</tspan>

<tspan x="10" y="922">- rename shell command contentPut to contentPutString</tspan>

<tspan x="10" y="938">- add method urlResolve</tspan>

<tspan x="10" y="954">- remove "instanceof Error" check for error validation tests</tspan>

<tspan x="10" y="970">- require explicit creation of deferred task utility2.onReady</tspan>

<tspan x="10" y="986">- delete unused demo.sh</tspan>

<tspan x="10" y="1002">- fix multi-build race conditions</tspan>

<tspan x="10" y="1018"></tspan>

<tspan x="10" y="1034">2015-05-01 03:40:02 +0800</tspan>

<tspan x="10" y="1050">- npm publish 2015.4.30-e</tspan>

<tspan x="10" y="1066"></tspan>

<tspan x="10" y="1082">2015-05-01 02:37:02 +0800</tspan>

<tspan x="10" y="1098">- npm publish 2015.4.30-c</tspan>

<tspan x="10" y="1114">- add quickstart node example</tspan>

<tspan x="10" y="1130">- add quickstart cli example</tspan>

<tspan x="10" y="1146"></tspan>

<tspan x="10" y="1162">2015-04-30 21:24:16 +0800</tspan>

<tspan x="10" y="1178">- npm publish 2015.4.30-a</tspan>

<tspan x="10" y="1194">- improve test-coverage</tspan>

<tspan x="10" y="1210">- add ajaxContentDelete, ajaxContentGet, ajaxContentPut</tspan>

<tspan x="10" y="1226">- add testCase_contentGet_default</tspan>

<tspan x="10" y="1242">- update README.md</tspan>

<tspan x="10" y="1258">- migrate from github-upload to github-crud</tspan>

<tspan x="10" y="1274"></tspan>

<tspan x="10" y="1290">2014-12-28 21:05:21 +0800</tspan>

<tspan x="10" y="1306">fix build</tspan>

<tspan x="10" y="1322"></tspan>

<tspan x="10" y="1338">2014-12-28 20:43:07 +0800</tspan>

<tspan x="10" y="1354">add demo.sh</tspan>

<tspan x="10" y="1370"></tspan>

<tspan x="10" y="1386">2014-12-28 19:50:36 +0800</tspan>

<tspan x="10" y="1402">fix test</tspan>

<tspan x="10" y="1418"></tspan>

<tspan x="10" y="1434">2014-12-28 19:10:28 +0800</tspan>

<tspan x="10" y="1450">remove screenshot.png</tspan>

<tspan x="10" y="1466"></tspan>

<tspan x="10" y="1482">2014-12-28 19:09:23 +0800</tspan>

<tspan x="10" y="1498">fix test</tspan>

<tspan x="10" y="1514"></tspan>

<tspan x="10" y="1530">2014-12-28 10:15:03 +0800</tspan>

<tspan x="10" y="1546">improve code coverage</tspan>

<tspan x="10" y="1562"></tspan>

<tspan x="10" y="1578">2014-12-28 07:17:13 +0800</tspan>

<tspan x="10" y="1594">- add modeData option in githubUpload</tspan>

<tspan x="10" y="1610"></tspan>

<tspan x="10" y="1626">2014-12-28 06:26:46 +0800</tspan>

<tspan x="10" y="1642">improve test coverage</tspan>

<tspan x="10" y="1658"></tspan>

<tspan x="10" y="1674">2014-12-27 21:38:33 +0800</tspan>

<tspan x="10" y="1690">update README.md</tspan>

<tspan x="10" y="1706"></tspan>

<tspan x="10" y="1722">2014-12-27 21:10:55 +0800</tspan>

<tspan x="10" y="1738">add cli script</tspan>

<tspan x="10" y="1754"></tspan>

<tspan x="10" y="1770">2014-12-27 19:54:19 +0800</tspan>

<tspan x="10" y="1786">improve coverage</tspan>

<tspan x="10" y="1802"></tspan>

<tspan x="10" y="1818">2014-12-27 12:17:15 +0800</tspan>

<tspan x="10" y="1834">initial commit</tspan>

<tspan x="10" y="1850"></tspan>

<tspan x="10" y="1866">2014-03-26 02:31:50 +0700</tspan>

<tspan x="10" y="1882">add blank README.md</tspan>

</text>
</svg>
